<mxfile host="Electron" modified="2024-01-18T00:04:40.853Z" agent="Mozilla/5.0 (Macintosh; Intel Mac OS X 10_15_7) AppleWebKit/537.36 (KHTML, like Gecko) draw.io/22.1.18 Chrome/120.0.6099.199 Electron/28.1.2 Safari/537.36" version="22.1.18" etag="LrYvMriCQM_pyGkmJsAD" type="device">
  <diagram id="8qkLVwH4qrjmf-GUvriw" name="Page-1">
    <mxGraphModel dx="1205" dy="1030" grid="1" gridSize="10" guides="1" tooltips="1" connect="1" arrows="1" fold="1" page="1" pageScale="1" pageWidth="850" pageHeight="1100" math="1" shadow="0">
      <root>
        <mxCell id="0" />
        <mxCell id="1" parent="0" />
        <mxCell id="f4YcgXGXasGwj3y2cGa0-21" value="" style="group" vertex="1" connectable="0" parent="1">
          <mxGeometry x="160" y="190" width="360" height="240" as="geometry" />
        </mxCell>
        <mxCell id="f4YcgXGXasGwj3y2cGa0-1" value="Conv1D" style="rounded=1;whiteSpace=wrap;html=1;rotation=90;fillColor=#76B3E2;fontColor=#000000;strokeColor=#006EAF;" vertex="1" parent="f4YcgXGXasGwj3y2cGa0-21">
          <mxGeometry x="20" y="110" width="160" height="40" as="geometry" />
        </mxCell>
        <mxCell id="f4YcgXGXasGwj3y2cGa0-2" value="AdaGN&lt;br&gt;" style="rounded=1;whiteSpace=wrap;html=1;rotation=90;fillColor=#86E27C;fontColor=#000000;strokeColor=#006EAF;" vertex="1" parent="f4YcgXGXasGwj3y2cGa0-21">
          <mxGeometry x="90" y="110" width="160" height="40" as="geometry" />
        </mxCell>
        <mxCell id="f4YcgXGXasGwj3y2cGa0-3" value="SiLU" style="ellipse;whiteSpace=wrap;html=1;aspect=fixed;" vertex="1" parent="f4YcgXGXasGwj3y2cGa0-21">
          <mxGeometry x="220" y="110" width="40" height="40" as="geometry" />
        </mxCell>
        <mxCell id="f4YcgXGXasGwj3y2cGa0-7" value="" style="endArrow=none;html=1;rounded=0;entryX=0.5;entryY=1;entryDx=0;entryDy=0;" edge="1" parent="f4YcgXGXasGwj3y2cGa0-21" target="f4YcgXGXasGwj3y2cGa0-1">
          <mxGeometry width="50" height="50" relative="1" as="geometry">
            <mxPoint y="130" as="sourcePoint" />
            <mxPoint x="20" y="110" as="targetPoint" />
          </mxGeometry>
        </mxCell>
        <mxCell id="f4YcgXGXasGwj3y2cGa0-8" value="" style="endArrow=none;html=1;rounded=0;entryX=0.5;entryY=1;entryDx=0;entryDy=0;exitX=0.5;exitY=0;exitDx=0;exitDy=0;" edge="1" parent="f4YcgXGXasGwj3y2cGa0-21" source="f4YcgXGXasGwj3y2cGa0-1" target="f4YcgXGXasGwj3y2cGa0-2">
          <mxGeometry width="50" height="50" relative="1" as="geometry">
            <mxPoint x="120" y="129.70999999999998" as="sourcePoint" />
            <mxPoint x="140" y="130" as="targetPoint" />
          </mxGeometry>
        </mxCell>
        <mxCell id="f4YcgXGXasGwj3y2cGa0-9" value="" style="endArrow=none;html=1;rounded=0;entryX=0.5;entryY=1;entryDx=0;entryDy=0;exitX=0.5;exitY=0;exitDx=0;exitDy=0;" edge="1" parent="f4YcgXGXasGwj3y2cGa0-21">
          <mxGeometry width="50" height="50" relative="1" as="geometry">
            <mxPoint x="190" y="129.70999999999998" as="sourcePoint" />
            <mxPoint x="220" y="129.70999999999998" as="targetPoint" />
          </mxGeometry>
        </mxCell>
        <mxCell id="f4YcgXGXasGwj3y2cGa0-10" value="" style="endArrow=none;html=1;rounded=0;" edge="1" parent="f4YcgXGXasGwj3y2cGa0-21">
          <mxGeometry width="50" height="50" relative="1" as="geometry">
            <mxPoint x="40" y="130" as="sourcePoint" />
            <mxPoint x="40" y="240" as="targetPoint" />
          </mxGeometry>
        </mxCell>
        <mxCell id="f4YcgXGXasGwj3y2cGa0-11" value="" style="endArrow=none;html=1;rounded=0;" edge="1" parent="f4YcgXGXasGwj3y2cGa0-21">
          <mxGeometry width="50" height="50" relative="1" as="geometry">
            <mxPoint x="40" y="240" as="sourcePoint" />
            <mxPoint x="300" y="240" as="targetPoint" />
          </mxGeometry>
        </mxCell>
        <mxCell id="f4YcgXGXasGwj3y2cGa0-12" value="&lt;font face=&quot;Garamond&quot;&gt;$$+&lt;br&gt;$$&lt;/font&gt;" style="ellipse;whiteSpace=wrap;html=1;aspect=fixed;fontSize=26;verticalAlign=middle;" vertex="1" parent="f4YcgXGXasGwj3y2cGa0-21">
          <mxGeometry x="280" y="110" width="40" height="40" as="geometry" />
        </mxCell>
        <mxCell id="f4YcgXGXasGwj3y2cGa0-13" value="" style="endArrow=none;html=1;rounded=0;exitX=0.5;exitY=1;exitDx=0;exitDy=0;" edge="1" parent="f4YcgXGXasGwj3y2cGa0-21" source="f4YcgXGXasGwj3y2cGa0-12">
          <mxGeometry width="50" height="50" relative="1" as="geometry">
            <mxPoint x="299.78000000000003" y="150" as="sourcePoint" />
            <mxPoint x="300" y="240" as="targetPoint" />
          </mxGeometry>
        </mxCell>
        <mxCell id="f4YcgXGXasGwj3y2cGa0-14" value="" style="endArrow=none;html=1;rounded=0;exitX=1;exitY=0.5;exitDx=0;exitDy=0;entryX=0;entryY=0.5;entryDx=0;entryDy=0;" edge="1" parent="f4YcgXGXasGwj3y2cGa0-21" source="f4YcgXGXasGwj3y2cGa0-3" target="f4YcgXGXasGwj3y2cGa0-12">
          <mxGeometry width="50" height="50" relative="1" as="geometry">
            <mxPoint x="300" y="230" as="sourcePoint" />
            <mxPoint x="350" y="180" as="targetPoint" />
          </mxGeometry>
        </mxCell>
        <mxCell id="f4YcgXGXasGwj3y2cGa0-16" value="" style="endArrow=classic;html=1;rounded=0;exitX=1;exitY=0.5;exitDx=0;exitDy=0;" edge="1" parent="f4YcgXGXasGwj3y2cGa0-21" source="f4YcgXGXasGwj3y2cGa0-12">
          <mxGeometry width="50" height="50" relative="1" as="geometry">
            <mxPoint x="380" y="200" as="sourcePoint" />
            <mxPoint x="360" y="130" as="targetPoint" />
          </mxGeometry>
        </mxCell>
        <mxCell id="f4YcgXGXasGwj3y2cGa0-17" value="" style="endArrow=classic;html=1;rounded=0;entryX=0;entryY=0.75;entryDx=0;entryDy=0;" edge="1" parent="f4YcgXGXasGwj3y2cGa0-21" target="f4YcgXGXasGwj3y2cGa0-2">
          <mxGeometry width="50" height="50" relative="1" as="geometry">
            <mxPoint x="120" y="20" as="sourcePoint" />
            <mxPoint x="170" y="-30" as="targetPoint" />
            <Array as="points">
              <mxPoint x="160" y="20" />
            </Array>
          </mxGeometry>
        </mxCell>
        <mxCell id="f4YcgXGXasGwj3y2cGa0-18" value="" style="endArrow=classic;html=1;rounded=0;entryX=0;entryY=0.75;entryDx=0;entryDy=0;" edge="1" parent="f4YcgXGXasGwj3y2cGa0-21">
          <mxGeometry width="50" height="50" relative="1" as="geometry">
            <mxPoint x="220" y="20" as="sourcePoint" />
            <mxPoint x="180" y="50" as="targetPoint" />
            <Array as="points">
              <mxPoint x="180" y="20" />
            </Array>
          </mxGeometry>
        </mxCell>
        <mxCell id="f4YcgXGXasGwj3y2cGa0-19" value="&lt;font style=&quot;font-size: 17px;&quot;&gt;$$\alpha_e$$&lt;/font&gt;" style="text;strokeColor=none;align=center;fillColor=none;html=1;verticalAlign=middle;whiteSpace=wrap;rounded=0;" vertex="1" parent="f4YcgXGXasGwj3y2cGa0-21">
          <mxGeometry x="70" width="60" height="40" as="geometry" />
        </mxCell>
        <mxCell id="f4YcgXGXasGwj3y2cGa0-20" value="&lt;font style=&quot;font-size: 17px;&quot;&gt;$$z_e$$&lt;/font&gt;" style="text;strokeColor=none;align=center;fillColor=none;html=1;verticalAlign=middle;whiteSpace=wrap;rounded=0;" vertex="1" parent="f4YcgXGXasGwj3y2cGa0-21">
          <mxGeometry x="210" width="60" height="40" as="geometry" />
        </mxCell>
      </root>
    </mxGraphModel>
  </diagram>
</mxfile>
